-vsync is deprecated. Use -fps_mode
Passing a number to -vsync is deprecated, use a string argument as described in the manual.
[h264 @ 0x571d72dd5480] Reinit context to 848x480, pix_fmt: yuv420p
Input #0, mov,mp4,m4a,3gp,3g2,mj2, from '/var/www/html/project/media/video/original/WhatsApp_Video_2026-02-16_at_15.27.05.mp4':
  Metadata:
    major_brand     : mp42
    minor_version   : 0
    compatible_brands: mp42isom
  Duration: 00:01:13.38, start: 0.000000, bitrate: 1122 kb/s
  Stream #0:0[0x1](und): Video: h264 (High), 1 reference frame (avc1 / 0x31637661), yuv420p(tv, bt709, progressive, left), 848x478 (848x480), 866 kb/s, 30.02 fps, 30 tbr, 90k tbn (default)
    Metadata:
      vendor_id       : [0][0][0][0]
  Stream #0:1[0x2](und): Audio: aac (LC) (mp4a / 0x6134706D), 44100 Hz, stereo, fltp, 253 kb/s (default)
    Metadata:
      vendor_id       : [0][0][0][0]
Input #1, png_pipe, from '/var/www/html/project/static/images/templates/logo.png':
  Duration: N/A, bitrate: N/A
  Stream #1:0: Video: png, 1 reference frame, rgba(pc, gbr/unknown/unknown), 1920x1080 [SAR 2835:2835 DAR 16:9], 25 fps, 25 tbr, 25 tbn
[h264 @ 0x571d72eee640] Reinit context to 1280x720, pix_fmt: yuv420p
Input #2, mov,mp4,m4a,3gp,3g2,mj2, from '/var/www/html/project/static/images/templates/Codino.mp4':
  Metadata:
    major_brand     : mp42
    minor_version   : 1
    compatible_brands: isommp41mp42
    creation_time   : 2021-07-11T07:02:58.000000Z
  Duration: 00:00:02.00, start: 0.000000, bitrate: 1007 kb/s
  Stream #2:0[0x1](ita): Audio: aac (LC) (mp4a / 0x6134706D), 44100 Hz, stereo, fltp, 102 kb/s (default)
    Metadata:
      creation_time   : 2021-07-11T07:02:58.000000Z
      handler_name    : Core Media Audio
      vendor_id       : [0][0][0][0]
  Stream #2:1[0x2](und): Video: h264 (High), 1 reference frame (avc1 / 0x31637661), yuv420p(tv, bt709, progressive, left), 1280x720 [SAR 1:1 DAR 16:9], 813 kb/s, 25 fps, 25 tbr, 25k tbn (default)
    Metadata:
      creation_time   : 2021-07-11T07:02:58.000000Z
      handler_name    : Core Media Video
      vendor_id       : [0][0][0][0]
[out#0/mp4 @ 0x571d74bc7d00] Adding streams from explicit maps...
[out#0/mp4 @ 0x571d74bc7d00] Creating output stream from an explicitly mapped complex filtergraph 0, output [v]
[vost#0:0/libx264 @ 0x571d74bc8a80] Created video stream from complex filtergraph 0:[concat]
[vost#0:0/libx264 @ 0x571d74bc8a80] 
[out#0/mp4 @ 0x571d74bc7d00] Creating output stream from an explicitly mapped complex filtergraph 0, output [a]
[aost#0:1/aac @ 0x571d74bca500] Created audio stream from complex filtergraph 0:[concat]
[aost#0:1/aac @ 0x571d74bca500] 
Stream mapping:
  Stream #0:0 (h264) -> scale:default
  Stream #0:1 (aac) -> concat
  Stream #1:0 (png) -> scale:default
  Stream #2:0 (aac) -> concat
  Stream #2:1 (h264) -> scale:default
  concat -> Stream #0:0 (libx264)
  concat -> Stream #0:1 (aac)
Press [q] to stop, [?] for help
[h264 @ 0x571d72e406c0] Reinit context to 848x480, pix_fmt: yuv420p
[in#1/png_pipe @ 0x571d72e476c0] EOF while reading input
[in#1/png_pipe @ 0x571d72e476c0] Terminating demuxer thread
[vist#1:0/png @ 0x571d72eed440] Decoder thread received EOF packet
[vist#1:0/png @ 0x571d72eed440] Decoder returned EOF, finishing
[vist#1:0/png @ 0x571d72eed440] Terminating decoder thread
[h264 @ 0x571d73d79f00] Reinit context to 1280x720, pix_fmt: yuv420p
[Parsed_scale_0 @ 0x571d72e3e440] w:1920 h:1080 flags:'' interl:0
[Parsed_scale_2 @ 0x571d74cb2cc0] w:1920 h:1080 flags:'' interl:0
[Parsed_scale_4 @ 0x571d74cc0180] w:1920 h:1080 flags:'' interl:0
[graph 0 input from stream 0:0 @ 0x571d72dcb8c0] w:848 h:478 pixfmt:yuv420p tb:1/90000 fr:30/1 sar:0/1
[graph 0 input from stream 1:0 @ 0x571d74ca23c0] w:1920 h:1080 pixfmt:rgba tb:1/25 fr:25/1 sar:2835/2835
[graph 0 input from stream 2:1 @ 0x571d74ca24c0] w:1280 h:720 pixfmt:yuv420p tb:1/25000 fr:25/1 sar:1/1
[graph_0_in_0_1 @ 0x571d74cce740] tb:1/44100 samplefmt:fltp samplerate:44100 chlayout:stereo
[graph_0_in_2_0 @ 0x571d74cceb00] tb:1/44100 samplefmt:fltp samplerate:44100 chlayout:stereo
[Parsed_scale_0 @ 0x571d72e3e440] w:848 h:478 fmt:yuv420p sar:0/1 -> w:1920 h:1080 fmt:yuv420p sar:0/1 flags:0x00000004
[Parsed_setsar_1 @ 0x571d74cb2a00] w:1920 h:1080 sar:0/1 dar:16/9 -> sar:1/1 dar:16/9
[Parsed_scale_2 @ 0x571d74cb2cc0] w:1920 h:1080 fmt:rgba sar:2835/2835 -> w:1920 h:1080 fmt:yuva420p sar:1/1 flags:0x00000004
[Parsed_setsar_3 @ 0x571d74cbfec0] w:1920 h:1080 sar:1/1 dar:16/9 -> sar:1/1 dar:16/9
[Parsed_overlay_6 @ 0x571d74ccd4c0] main w:1920 h:1080 fmt:yuv420p overlay w:1920 h:1080 fmt:yuva420p
[Parsed_overlay_6 @ 0x571d74ccd4c0] [framesync @ 0x571d72df5f68] Selected 1/90000 time base
[Parsed_overlay_6 @ 0x571d74ccd4c0] [framesync @ 0x571d72df5f68] Sync level 2
[Parsed_scale_4 @ 0x571d74cc0180] w:1280 h:720 fmt:yuv420p sar:1/1 -> w:1920 h:1080 fmt:yuv420p sar:1/1 flags:0x00000004
[Parsed_setsar_5 @ 0x571d72e3e340] w:1920 h:1080 sar:1/1 dar:16/9 -> sar:1/1 dar:16/9
[Parsed_concat_7 @ 0x571d74ccd780] Video inputs have different frame rates, output will be VFR
[Parsed_scale_0 @ 0x571d72e3e440] w:848 h:478 fmt:yuv420p sar:0/1 -> w:1920 h:1080 fmt:yuv420p sar:0/1 flags:0x00000004
    Last message repeated 2 times
[Parsed_scale_2 @ 0x571d74cb2cc0] w:1920 h:1080 fmt:rgba sar:2835/2835 -> w:1920 h:1080 fmt:yuva420p sar:1/1 flags:0x00000004
    Last message repeated 2 times
[Parsed_scale_4 @ 0x571d74cc0180] w:1280 h:720 fmt:yuv420p sar:1/1 -> w:1920 h:1080 fmt:yuv420p sar:1/1 flags:0x00000004
    Last message repeated 2 times
[libx264 @ 0x571d74bc8e40] using SAR=1/1
[libx264 @ 0x571d74bc8e40] MB rate (8160000000) > level limit (16711680)
[libx264 @ 0x571d74bc8e40] using cpu capabilities: MMX2 SSE2Fast SSSE3 SSE4.2 AVX FMA3 BMI2 AVX2
[libx264 @ 0x571d74bc8e40] profile High, level 6.2, 4:2:0, 8-bit
[libx264 @ 0x571d74bc8e40] 264 - core 164 r3108 31e19f9 - H.264/MPEG-4 AVC codec - Copyleft 2003-2023 - http://www.videolan.org/x264.html - options: cabac=1 ref=1 deblock=1:0:0 analyse=0x3:0x113 me=hex subme=2 psy=1 psy_rd=1.00:0.00 mixed_ref=0 me_range=16 chroma_me=1 trellis=0 8x8dct=1 cqm=0 deadzone=21,11 fast_pskip=1 chroma_qp_offset=0 threads=24 lookahead_threads=8 sliced_threads=0 nr=0 decimate=1 interlaced=0 bluray_compat=0 constrained_intra=0 bframes=3 b_pyramid=2 b_adapt=1 b_bias=0 direct=1 weightb=1 open_gop=0 weightp=1 keyint=250 keyint_min=25 scenecut=40 intra_refresh=0 rc_lookahead=10 rc=crf mbtree=1 crf=18.0 qcomp=0.60 qpmin=0 qpmax=69 qpstep=4 ip_ratio=1.40 aq=1:1.00
Output #0, mp4, to '/var/www/html/project/media/video/watermarks/WhatsApp_Video_2026-02-16_at_15.27.05.mp4':
  Metadata:
    major_brand     : mp42
    minor_version   : 0
    compatible_brands: mp42isom
    encoder         : Lavf60.16.100
  Stream #0:0: Video: h264, 1 reference frame (avc1 / 0x31637661), yuv420p(tv, bt709, progressive, left), 1920x1080 (0x0) [SAR 1:1 DAR 16:9], q=2-31, 1000k tbn
    Metadata:
      encoder         : Lavc60.31.102 libx264
    Side data:
      cpb: bitrate max/min/avg: 0/0/0 buffer size: 0 vbv_delay: N/A
  Stream #0:1: Audio: aac (LC) (mp4a / 0x6134706D), 44100 Hz, stereo, fltp, delay 1024, 128 kb/s
    Metadata:
      encoder         : Lavc60.31.102 aac
[in#0/mov,mp4,m4a,3gp,3g2,mj2 @ 0x571d72df4f40] EOF while reading input
[in#0/mov,mp4,m4a,3gp,3g2,mj2 @ 0x571d72df4f40] Terminating demuxer thread
[vist#0:0/h264 @ 0x571d72de6080] Decoder thread received EOF packet
[vist#0:0/h264 @ 0x571d72de6080] Decoder returned EOF, finishing
[vist#0:0/h264 @ 0x571d72de6080] Terminating decoder thread
[Parsed_overlay_6 @ 0x571d74ccd4c0] [framesync @ 0x571d72df5f68] Sync level 0
[Parsed_concat_7 @ 0x571d74ccd780] EOF on in0:v0, 1 streams left in segment.
[aist#0:1/aac @ 0x571d72e4a200] Decoder thread received EOF packet
[aist#0:1/aac @ 0x571d72e4a200] Decoder returned EOF, finishing
[aist#0:1/aac @ 0x571d72e4a200] Terminating decoder thread
[Parsed_concat_7 @ 0x571d74ccd780] EOF on in0:a0, 0 streams left in segment.
[Parsed_concat_7 @ 0x571d74ccd780] Segment finished at pts=73381043
[in#2/mov,mp4,m4a,3gp,3g2,mj2 @ 0x571d72eed5c0] EOF while reading input
[in#2/mov,mp4,m4a,3gp,3g2,mj2 @ 0x571d72eed5c0] Terminating demuxer thread
[aist#2:0/aac @ 0x571d72de6640] Decoder thread received EOF packet
[aist#2:0/aac @ 0x571d72de6640] Decoder returned EOF, finishing
[aist#2:0/aac @ 0x571d72de6640] Terminating decoder thread
[Parsed_concat_7 @ 0x571d74ccd780] EOF on in1:a0, 1 streams left in segment.
[vist#2:1/h264 @ 0x571d72e44dc0] Decoder thread received EOF packet
[vist#2:1/h264 @ 0x571d72e44dc0] Decoder returned EOF, finishing
[vist#2:1/h264 @ 0x571d72e44dc0] Terminating decoder thread
[Parsed_concat_7 @ 0x571d74ccd780] EOF on in1:v0, 0 streams left in segment.
[Parsed_concat_7 @ 0x571d74ccd780] Segment finished at pts=75399728
No more output streams to write to, finishing.
[out#0/mp4 @ 0x571d74bc7d00] All streams finished
[out#0/mp4 @ 0x571d74bc7d00] Terminating muxer thread
[AVIOContext @ 0x571d74c95800] Statistics: 125209359 bytes written, 2 seeks, 481 writeouts
[out#0/mp4 @ 0x571d74bc7d00] Output file #0 (/var/www/html/project/media/video/watermarks/WhatsApp_Video_2026-02-16_at_15.27.05.mp4):
[out#0/mp4 @ 0x571d74bc7d00]   Output stream #0:0 (video): 2252 frames encoded; 2252 packets muxed (123890715 bytes); 
[out#0/mp4 @ 0x571d74bc7d00]   Output stream #0:1 (audio): 3246 frames encoded (3323840 samples); 3247 packets muxed (1205352 bytes); 
[out#0/mp4 @ 0x571d74bc7d00]   Total: 5499 packets (125096067 bytes) muxed
[out#0/mp4 @ 0x571d74bc7d00] video:120987kB audio:1177kB subtitle:0kB other streams:0kB global headers:0kB muxing overhead: 0.090561%
frame= 2252 fps= 99 q=-1.0 Lsize=  122275kB time=00:01:15.37 bitrate=13288.7kbits/s speed= 3.3x    
[AVIOContext @ 0x571d72dcbc00] Statistics: 9615 bytes written, 0 seeks, 47 writeouts
[libx264 @ 0x571d74bc8e40] frame I:16    Avg QP:15.94  size:179355
[libx264 @ 0x571d74bc8e40] frame P:1122  Avg QP:19.89  size: 75173
[libx264 @ 0x571d74bc8e40] frame B:1114  Avg QP:23.20  size: 32923
[libx264 @ 0x571d74bc8e40] consecutive B-frames: 32.0%  4.8%  3.9% 59.3%
[libx264 @ 0x571d74bc8e40] mb I  I16..4: 14.2% 22.1% 63.6%
[libx264 @ 0x571d74bc8e40] mb P  I16..4:  1.4%  7.1%  4.7%  P16..4: 31.2% 18.4% 14.7%  0.0%  0.0%    skip:22.6%
[libx264 @ 0x571d74bc8e40] mb B  I16..4:  0.6%  1.8%  0.8%  B16..8: 29.0% 14.8%  3.5%  direct:14.0%  skip:35.5%  L0:37.2% L1:42.5% BI:20.2%
[libx264 @ 0x571d74bc8e40] 8x8 transform intra:51.8% inter:50.7%
[libx264 @ 0x571d74bc8e40] coded y,uvDC,uvAC intra: 79.5% 41.7% 11.4% inter: 31.9% 10.0% 0.7%
[libx264 @ 0x571d74bc8e40] i16 v,h,dc,p: 36% 39% 14% 11%
[libx264 @ 0x571d74bc8e40] i8 v,h,dc,ddl,ddr,vr,hd,vl,hu: 24% 33% 12%  4%  5%  5%  6%  5%  7%
[libx264 @ 0x571d74bc8e40] i4 v,h,dc,ddl,ddr,vr,hd,vl,hu: 24% 31%  9%  5%  6%  6%  7%  5%  7%
[libx264 @ 0x571d74bc8e40] i8c dc,h,v,p: 54% 24% 16%  6%
[libx264 @ 0x571d74bc8e40] Weighted P-Frames: Y:0.4% UV:0.0%
[libx264 @ 0x571d74bc8e40] kb/s:13148.14
[aac @ 0x571d74bca8c0] Qavg: 1127.635
[in#0/mov,mp4,m4a,3gp,3g2,mj2 @ 0x571d72df4f40] Input file #0 (/var/www/html/project/media/video/original/WhatsApp_Video_2026-02-16_at_15.27.05.mp4):
[in#0/mov,mp4,m4a,3gp,3g2,mj2 @ 0x571d72df4f40]   Input stream #0:0 (video): 2202 packets read (7944615 bytes); 2202 frames decoded; 0 decode errors; 
[in#0/mov,mp4,m4a,3gp,3g2,mj2 @ 0x571d72df4f40]   Input stream #0:1 (audio): 3159 packets read (2325932 bytes); 3159 frames decoded; 0 decode errors (3234816 samples); 
[in#0/mov,mp4,m4a,3gp,3g2,mj2 @ 0x571d72df4f40]   Total: 5361 packets (10270547 bytes) demuxed
[AVIOContext @ 0x571d72df63c0] Statistics: 83862661 bytes read, 2115 seeks
[in#1/png_pipe @ 0x571d72e476c0] Input file #1 (/var/www/html/project/static/images/templates/logo.png):
[in#1/png_pipe @ 0x571d72e476c0]   Input stream #1:0 (video): 1 packets read (111578 bytes); 1 frames decoded; 0 decode errors; 
[in#1/png_pipe @ 0x571d72e476c0]   Total: 1 packets (111578 bytes) demuxed
[AVIOContext @ 0x571d72de6400] Statistics: 111578 bytes read, 0 seeks
[in#2/mov,mp4,m4a,3gp,3g2,mj2 @ 0x571d72eed5c0] Input file #2 (/var/www/html/project/static/images/templates/Codino.mp4):
[in#2/mov,mp4,m4a,3gp,3g2,mj2 @ 0x571d72eed5c0]   Input stream #2:0 (audio): 89 packets read (26579 bytes); 87 frames decoded; 0 decode errors (89024 samples); 
[in#2/mov,mp4,m4a,3gp,3g2,mj2 @ 0x571d72eed5c0]   Input stream #2:1 (video): 50 packets read (203365 bytes); 50 frames decoded; 0 decode errors; 
[in#2/mov,mp4,m4a,3gp,3g2,mj2 @ 0x571d72eed5c0]   Total: 139 packets (229944 bytes) demuxed
[AVIOContext @ 0x571d72e8de40] Statistics: 1629219 bytes read, 37 seeks
